<?xml version="1.0" encoding="utf-8"?><svg version="1.1" id="Layer_1" xmlns="http://www.w3.org/2000/svg" xmlns:xlink="http://www.w3.org/1999/xlink" x="0px" y="0px" viewBox="0 0 94.69 122.88" style="enable-background:new 0 0 94.69 122.88" xml:space="preserve"><g><path d="M16.25,65.07c0.72,0.86,0.64,2.14-0.22,2.86c-0.86,0.72-2.14,0.64-2.86-0.22C4.41,57.47-0.11,45.88,0,34.15 C0.11,22.7,4.58,11.19,13.75,0.68c0.72-0.83,2-0.91,2.86-0.19c0.83,0.72,0.92,2,0.19,2.86C8.29,13.08,4.13,23.7,4.05,34.18 C3.97,44.94,8.13,55.58,16.25,65.07L16.25,65.07z M52.1,40.15c1.14,14.1,3.71,27.26,7.45,38.83H34.46 c3.77-11.71,6.39-25.04,7.58-39.36l-0.05-0.05c-1.39-1.39-2.22-3.27-2.22-5.38c0-2.11,0.86-3.99,2.22-5.38 c1.39-1.39,3.27-2.22,5.38-2.22c2.11,0,3.99,0.86,5.38,2.22c1.39,1.39,2.22,3.27,2.22,5.38c0,1.17-0.26,2.26-0.73,3.25 C53.69,38.56,52.97,39.47,52.1,40.15L52.1,40.15z M60.87,82.87c0.96,2.7,1.99,5.31,3.09,7.81H30.08c1.08-2.5,2.1-5.11,3.06-7.81 H60.87L60.87,82.87z M65.75,94.59c3.12,6.42,17.66,24.17,17.66,25.69c0,0.87-0.22,1.74-0.67,2.61H67.26 c0.15-17.31-21.69-25.55-33.78-13.86c-3.6,3.48-5.48,8.28-6.34,13.86H11.94c-0.48-0.85-0.65-1.77-0.59-2.74 c0.1-1.59,13.94-19.26,16.95-25.55H65.75L65.75,94.59z M26.84,55.22c0.75,0.83,0.67,2.11-0.17,2.86c-0.83,0.75-2.11,0.67-2.86-0.17 c-6.74-7.62-10.2-15.69-10.06-23.87c0.14-7.96,3.66-15.94,10.84-23.57c0.78-0.8,2.05-0.86,2.86-0.08c0.8,0.78,0.86,2.05,0.08,2.86 c-6.46,6.88-9.65,13.92-9.76,20.85c-0.11,7.15,2.99,14.31,9.04,21.16L26.84,55.22L26.84,55.22z M36.21,45.85 c0.69,0.86,0.58,2.13-0.31,2.83c-0.86,0.69-2.13,0.58-2.83-0.3c-3.63-4.46-5.52-9.32-5.55-14.25c-0.03-4.8,1.77-9.62,5.46-14.14 c0.69-0.86,1.97-1,2.83-0.31c0.86,0.69,1,1.97,0.31,2.83c-3.08,3.77-4.57,7.74-4.57,11.59c0,3.96,1.61,7.96,4.63,11.7L36.21,45.85 L36.21,45.85z M81.52,67.7c-0.72,0.86-2,0.94-2.86,0.22c-0.86-0.72-0.94-2-0.22-2.86c8.12-9.48,12.31-20.16,12.2-30.89 C90.56,23.7,86.4,13.08,77.89,3.35c-0.72-0.83-0.64-2.11,0.19-2.86c0.83-0.72,2.11-0.64,2.86,0.19 c9.18,10.51,13.64,22.02,13.75,33.47C94.8,45.88,90.28,57.47,81.52,67.7L81.52,67.7z M70.9,57.88c-0.75,0.83-2.02,0.92-2.86,0.17 c-0.83-0.75-0.92-2.02-0.17-2.86c6.07-6.85,9.15-14,9.04-21.16c-0.11-6.96-3.3-14-9.76-20.85c-0.78-0.8-0.72-2.08,0.08-2.86 c0.8-0.78,2.08-0.72,2.86,0.08C77.28,18.04,80.8,26,80.94,33.98c0.14,8.18-3.3,16.25-10.06,23.87L70.9,57.88L70.9,57.88z M61.64,48.37c-0.69,0.86-1.97,1-2.83,0.3c-0.86-0.69-1-1.97-0.31-2.83c3.05-3.74,4.63-7.74,4.63-11.7c0-3.88-1.47-7.82-4.57-11.59 c-0.69-0.86-0.58-2.14,0.31-2.83c0.86-0.69,2.14-0.58,2.83,0.3c3.69,4.52,5.49,9.34,5.46,14.14c-0.03,4.94-1.91,9.76-5.55,14.25 L61.64,48.37L61.64,48.37z"/></g></svg>